<?xml version="1.0" standalone="no"?>
<!DOCTYPE svg PUBLIC "-//W3C//DTD SVG 20010904//EN"
 "http://www.w3.org/TR/2001/REC-SVG-20010904/DTD/svg10.dtd">
<svg version="1.0" xmlns="http://www.w3.org/2000/svg"
 width="944.000000pt" height="944.000000pt" viewBox="0 0 944.000000 944.000000"
 preserveAspectRatio="xMidYMid meet">
<metadata>
Created by potrace 1.11, written by Peter Selinger 2001-2013
</metadata>
<g transform="translate(0.000000,944.000000) scale(0.100000,-0.100000)"
fill="#000000" stroke="none">
<path d="M2950 7845 c-145 -23 -306 -82 -428 -156 -131 -79 -247 -192 -1496
-1454 -561 -567 -785 -799 -819 -851 -275 -417 -275 -921 0 -1338 71 -107
2082 -2137 2218 -2238 422 -314 987 -316 1410 -4 49 36 235 215 482 465 l403
406 406 -409 c229 -229 440 -433 483 -465 350 -259 825 -302 1215 -110 182 90
162 72 1278 1191 712 715 1074 1085 1112 1137 181 251 257 565 211 870 -28
188 -102 370 -211 522 -38 52 -400 422 -1112 1137 -1116 1119 -1096 1101
-1278 1191 -390 192 -865 149 -1215 -110 -43 -32 -254 -236 -483 -465 l-406
-409 -403 406 c-247 250 -433 429 -482 465 -139 103 -292 171 -465 209 -105
22 -314 28 -420 10z m372 -654 c32 -12 84 -40 116 -61 37 -25 542 -525 1366
-1354 1468 -1476 1352 -1371 1506 -1371 100 0 154 21 219 86 87 88 115 223 71
344 -22 58 -51 88 -729 768 l-706 708 410 407 c437 435 453 448 589 487 44 13
84 16 165 13 117 -5 190 -26 269 -77 26 -17 511 -495 1078 -1063 1106 -1109
1067 -1067 1109 -1210 20 -69 22 -205 5 -279 -30 -129 -56 -166 -316 -433
-133 -138 -606 -614 -1051 -1057 -748 -747 -813 -809 -873 -837 -93 -43 -161
-55 -276 -50 -113 6 -181 27 -271 88 -36 24 -552 535 -1366 1354 -1434 1442
-1352 1366 -1483 1374 -101 7 -164 -18 -239 -91 -53 -52 -66 -72 -80 -121 -23
-77 -16 -176 15 -242 18 -39 174 -200 724 -752 l701 -702 -390 -391 c-215
-214 -416 -407 -448 -429 -90 -61 -157 -82 -271 -88 -116 -5 -184 7 -276 51
-60 28 -125 90 -773 736 -390 388 -862 864 -1051 1056 -297 304 -345 359 -373
415 -42 88 -57 159 -55 260 1 105 27 193 83 281 30 47 317 340 1072 1095 1100
1099 1060 1061 1194 1099 76 22 263 14 335 -14z"/>
</g>
</svg>
